<svg xmlns="http://www.w3.org/2000/svg" id="project-logo_svg__Layer_1" viewBox="0 0 636.21 204.11" class="logo relative h-[109px]" style="translate: none; rotate: none; scale: none; transform: translate(0px, 0px); opacity: 1;"><defs><style>.project-logo_svg__cls-1{fill:#fff}</style></defs><path d="M395.83 3.77h-.14l.08-.2h-16.04c-4.73 0-8.76.97-12.09 2.9-3.32 1.94-5.71 4.65-7.18 8.14-.93 2.22-1.19 4.24-.79 6.06.47 1.91 1.65 3.27 3.55 4.11 1.74.75 4.65 1.13 8.72 1.13h14.49l1.45-3.55h-8.16c-3.94 0-6.56-.5-7.86-1.52-1.43-1.1-1.28-3.63-.15-6.32 1.94-4.65 6.02-7.54 11.64-7.54h6.32l-1.45 3.49h4.81zm-42.64 22.14h5.48l-5.34-22.36h-4.92v.02h-5.95l-22.87 21.4 8.94-21.4h-9.8l-11.84 9.28-6.1 5.01h-.28l2.87-7.3-3.5-6.99h-9.85l-8.95 21.44-5.16-21.44h-10.79l-23.84 22.34h5.96l6.09-5.84h15.02l1.2 5.84h15.96l5.77-13.81c.29-.69.57-1.49.84-2.38.03.72.22 1.49.58 2.29l5.07 11.52h.86l14.52-11.48c.55-.43 1.37-1.21 2.47-2.33-.56 1.04-.95 1.83-1.18 2.38l-5.77 13.81h21.65l6.02-5.87h15.6l1.25 5.87ZM267.7 17h-11.22l9.51-9.09 1.72 9.09Zm83.57-.03h-11.79l9.76-9.5zM248.2 14.62c1.46-3.49 1.33-6.2-.38-8.14-1.71-1.93-4.93-2.9-9.66-2.9h-16.03l-1.45 3.5h11.04c5.63 0 7.26 2.8 5.32 7.45-1.12 2.69-2.11 5.16-4.46 6.26-2.15 1.01-4.36 1.31-8.3 1.31h-5.11l3.81-9.06h-4.81l-5.42 12.88h14.53c4.07 0 7.29-.38 9.66-1.13 2.6-.84 4.93-2.21 6.98-4.11 1.92-1.82 3.34-3.84 4.27-6.06M270.34 173.52c-.61.45-.76 1.3-.32 1.91.45.63 1.3.76 1.91.33l18.79-13.48c-.05-.24-.09-.48-.12-.73l-20.17 11.91s-.07.04-.1.06m12.84 14.59c.67.36 1.49.1 1.87-.55l9.69-17.8a8 8 0 0 1-.64-.67l-11.39 17.06s-.05.07-.08.1c-.36.67-.1 1.5.55 1.87m10.04 2.86 5.17-18.6c-.27-.12-.54-.27-.79-.43l-7 18.18s-.03.07-.03.12c-.21.73.22 1.49.96 1.69.72.21 1.48-.22 1.69-.96m5.91 1.26c-.02.06-.02.12-.02.18-.03.76.57 1.39 1.33 1.42.75.01 1.39-.58 1.4-1.33l.6-18.79c-.12-.02-.24-.04-.34-.06l-2.98 18.58Zm49.67-108.58c-9.24 5.3-18.37 10.54-27.66 15.86 9.34 5.35 18.42 10.56 27.66 15.85V83.65Zm-11.44-7.34L318.56 89.8c.05.24.09.48.12.73l20.17-11.91s.07-.04.11-.06c.61-.45.76-1.3.31-1.91a1.37 1.37 0 0 0-1.91-.33m-5.88-6.64-14.29 16.18c.13.25.25.51.37.78l15.89-15.04s.05-.06.08-.09c.51-.57.45-1.43-.12-1.94-.57-.49-1.43-.45-1.93.12m-7.22-5.17-9.69 17.8c.22.21.43.43.64.67l11.39-17.06.07-.1c.36-.67.11-1.49-.55-1.87-.67-.36-1.49-.1-1.87.55m-8.17-3.41-5.17 18.6c.27.12.54.27.79.43l7-18.18s.03-.07.03-.12c.21-.73-.22-1.49-.96-1.69-.72-.21-1.48.22-1.69.96m3.16 128.52-7.4-17.55c-.3.16-.6.33-.91.48l5.74 18.03s.01.07.03.12c.3.69 1.11 1.02 1.81.73.69-.3 1.02-1.11.73-1.81m7.46-2.33c.61-.45.75-1.3.31-1.91l-11.59-16.16c-.24.25-.48.49-.72.73l10 16.92.08.11c.43.61 1.3.75 1.91.31m-7.79-25.02 18.49 12.36s.08.05.12.07c.66.36 1.5.11 1.85-.55.36-.67.12-1.49-.55-1.87l-19.79-10.76c-.03.25-.07.51-.12.75m14.87 19.16c.51-.57.45-1.43-.12-1.93l-15.79-13.96c-.13.28-.27.55-.42.82l14.31 15.1s.04.06.07.09c.57.51 1.43.45 1.94-.12m-23.06 10.61-3.3-18.37c-.31.06-.61.1-.93.13l1.51 18.6s.01.09.01.13c.13.73.85 1.24 1.6 1.11.75-.14 1.24-.85 1.11-1.6m-18.59-25.81c-.14-.26-.26-.51-.38-.78l-15.89 15.04s-.04.06-.07.09c-.51.57-.45 1.44.12 1.94.57.49 1.43.45 1.93-.12zm-.58-14.83c-9.32-5.34-18.42-10.56-27.67-15.86v31.73c9.31-5.34 18.4-10.56 27.67-15.88m-1.47-88.93 7.4 17.55c.3-.16.6-.33.91-.48l-5.74-18.03s-.01-.07-.03-.12c-.3-.69-1.11-1.02-1.81-.73-.69.3-1.02 1.11-.73 1.81m-7.46 2.33c-.61.45-.75 1.3-.32 1.91l11.59 16.16c.24-.25.48-.49.72-.73l-10-16.92s-.04-.07-.07-.1c-.43-.61-1.3-.75-1.91-.31m7.79 25.02-18.49-12.36-.12-.07c-.66-.36-1.49-.1-1.85.55-.36.67-.12 1.5.55 1.87l19.79 10.76c.03-.25.07-.51.12-.75m-14.87-19.17c-.51.57-.45 1.43.12 1.93l15.79 13.96c.13-.28.27-.55.42-.82l-14.3-15.1s-.05-.06-.08-.09c-.57-.51-1.43-.45-1.94.12m23.05-10.61 3.3 18.37c.31-.06.61-.1.93-.13l-1.51-18.6s-.01-.09-.01-.13c-.14-.73-.85-1.24-1.6-1.11-.75.14-1.24.85-1.11 1.6m8.61 18.39 2.98-18.58c.01-.06.01-.12.01-.18.03-.76-.57-1.39-1.33-1.42-.75-.01-1.39.58-1.4 1.33l-.6 18.79c.12.01.24.04.34.06m20.59 45.15c-15.57-6.25-31.14-12.48-46.8-18.55-7.43-2.88-13.5-6.93-16.89-13.94-.74 1.49-1.44 2.78-2.02 4.11-4.64 10.58-2.2 20.04 7.1 27.42 3.8 3.02 8.1 5.39 12.73 7.23 15.34 6.1 30.69 12.17 46.07 18.2 7.11 2.79 12.8 6.87 16 13.51 1.04-1.59 1.7-3.11 2.34-4.64 4.32-10.36 1.7-19.72-7.54-26.94-3.32-2.59-6.97-4.79-10.98-6.4M636.21 94.44h-5.76l-21.81 32.01-21.91-32.01h-10.86l25.24 36.86v26.29h10.62V130.3zm-104.84 4.1h22.86v-4.1h-56.35v4.1h22.86v59.06h10.62V98.54Zm-74.19 59.05h10.62V94.44h-10.62zm-75.42-19.45c-1.33-3.51-2-7.47-2-11.88s.67-8.44 2.02-11.98 3.21-6.55 5.57-9.02c2.36-2.48 5.14-4.38 8.31-5.72 3.18-1.33 6.59-2 10.24-2 4.26 0 8.02 1.18 11.29 3.55s6.22 6.1 8.86 11.22l4.62-3.05c-1.3-2.13-2.87-4.17-4.69-6.12-1.83-1.95-3.9-3.68-6.24-5.17-2.33-1.49-4.92-2.69-7.76-3.6-2.84-.9-5.95-1.36-9.31-1.36s-6.84.41-9.95 1.21c-3.11.81-5.98 1.95-8.6 3.43a33.3 33.3 0 0 0-7.05 5.29c-2.08 2.05-3.84 4.3-5.29 6.76s-2.55 5.1-3.31 7.91q-1.14 4.215-1.14 8.64c0 4.45.83 8.66 2.5 12.65s4.02 7.47 7.07 10.45c3.05 2.99 6.71 5.35 10.98 7.1 4.27 1.74 9.03 2.62 14.27 2.62 3.62 0 6.9-.44 9.84-1.33s5.57-2.09 7.91-3.6c2.33-1.51 4.39-3.24 6.17-5.19q2.67-2.925 4.62-6.12l-4.48-2.86c-.89 1.78-2.03 3.53-3.43 5.26s-2.98 3.29-4.74 4.67-3.68 2.5-5.74 3.36c-2.07.86-4.21 1.29-6.43 1.29-3.71 0-7.16-.64-10.33-1.93-3.18-1.29-5.93-3.14-8.27-5.57-2.33-2.43-4.17-5.4-5.5-8.91M230.23 140.64l-41.39-46.2h-5.95v63.15h4.81v-49.86h.38l44.82 51.34h2.48V94.44h-4.67v46.2zm-91.01 3.95c1.05-2.86 1.57-5.91 1.57-9.15V94.43h-4.67v41.01c0 2.7-.45 5.23-1.36 7.6-.9 2.37-2.21 4.44-3.9 6.22-1.7 1.78-3.76 3.18-6.17 4.21s-5.13 1.55-8.14 1.55-5.69-.52-8.12-1.55-4.5-2.44-6.22-4.21a18.6 18.6 0 0 1-3.95-6.22c-.92-2.37-1.38-4.9-1.38-7.6V94.43H86.26v40.72c0 3.3.58 6.41 1.74 9.31s2.87 5.44 5.14 7.6 5.08 3.87 8.43 5.12 7.2 1.88 11.55 1.88c4.89 0 9.08-.63 12.57-1.88s6.36-2.95 8.6-5.1c2.24-2.14 3.88-4.64 4.93-7.5M43.58 148c.95-2.21 1.43-4.56 1.43-7.07q0-3.33-1.53-6.03c-1.02-1.79-2.36-3.44-4.05-4.95-1.68-1.51-3.59-2.9-5.74-4.17-2.14-1.27-4.33-2.49-6.55-3.67a923 923 0 0 1-6.55-3.48c-2.15-1.14-4.06-2.33-5.74-3.55q-2.52-1.83-4.05-3.9c-1.02-1.38-1.52-2.9-1.52-4.55 0-1.17.25-2.32.74-3.45s1.24-2.14 2.24-3.05c1-.9 2.25-1.64 3.74-2.19 1.49-.56 3.24-.83 5.24-.83 2.25 0 4.28.31 6.07.93q2.7.93 4.74 2.64c1.37 1.14 2.54 2.52 3.53 4.12q1.47 2.4 2.43 5.31l5.43-2.48c-.76-2.38-1.76-4.48-3-6.29a17.9 17.9 0 0 0-4.52-4.57c-1.78-1.24-3.84-2.17-6.19-2.81-2.35-.63-5.02-.95-8-.95q-4.95 0-8.79 1.29c-2.56.86-4.71 2.04-6.45 3.55a14.9 14.9 0 0 0-3.98 5.36c-.91 2.06-1.36 4.3-1.36 6.71s.5 4.55 1.5 6.41 2.31 3.54 3.93 5.05 3.47 2.87 5.55 4.1c2.08 1.22 4.2 2.39 6.36 3.5q3.24 1.665 6.36 3.33c2.08 1.11 3.93 2.29 5.55 3.55 1.62 1.25 2.93 2.64 3.93 4.14 1 1.51 1.5 3.23 1.5 5.17 0 1.62-.36 3.04-1.09 4.26s-1.7 2.25-2.91 3.1c-1.21.84-2.57 1.48-4.1 1.9-1.52.43-3.06.64-4.62.64-2.06 0-4.01-.3-5.83-.9a16.9 16.9 0 0 1-4.98-2.6c-1.49-1.13-2.8-2.5-3.93-4.12s-2.03-3.46-2.69-5.52L0 144.26c.83 2.35 1.89 4.44 3.19 6.26 1.3 1.83 2.87 3.37 4.69 4.64s3.93 2.24 6.31 2.9c2.38.67 5.09 1 8.15 1 3.75 0 7.03-.48 9.86-1.43s5.19-2.25 7.1-3.88c1.91-1.64 3.33-3.56 4.29-5.76" class="project-logo_svg__cls-1"></path></svg>